<?xml version="1.0" encoding="UTF-8"?> <svg xmlns="http://www.w3.org/2000/svg" xmlns:xlink="http://www.w3.org/1999/xlink" version="1.1" id="Layer_1" x="0px" y="0px" viewBox="0 0 109.7 109.7" style="enable-background:new 0 0 109.7 109.7;" xml:space="preserve"> <style type="text/css"> .st0{fill:#FFFFFF;} </style> <g> <path class="st0" d="M35.7,17.7l17.8,54.7l19-54.7h22.7C85.1,6.8,70.8,0,54.9,0c-16,0-30.3,6.8-40.3,17.7H35.7z"></path> <path class="st0" d="M85.9,89.8v-70H97c7.9,9.5,12.7,21.7,12.7,35.1c0,13.3-4.8,25.5-12.6,34.9H85.9z"></path> <path class="st0" d="M63.9,91.9v-2.1h11.6v-70h-0.2L50.4,92L25.6,19.8h-0.2v70H37v2.1H14.5c10,10.9,24.4,17.8,40.4,17.8 s30.3-6.9,40.4-17.8C95.3,91.9,63.9,91.9,63.9,91.9z"></path> <path class="st0" d="M21.8,89.8v-70h-9.1C4.8,29.3,0,41.5,0,54.9c0,13.3,4.8,25.5,12.6,34.9H21.8z"></path> </g> </svg> 