<svg xmlns="http://www.w3.org/2000/svg" width="52.522" height="39.979" viewBox="0 0 52.522 39.979">
  <g id="Layer_2" data-name="Layer 2" transform="translate(-69 393.019)">
    <g id="Layer_1" data-name="Layer 1" transform="translate(69 -393.019)">
      <path id="Path_1" data-name="Path 1" d="M4.944,231.494a3.31,3.31,0,0,1-2.344.991,2.523,2.523,0,1,1-.037-5.045,3.351,3.351,0,0,1,2.227.837l-.553.547a2.539,2.539,0,0,0-1.66-.656,1.8,1.8,0,0,0,.034,3.589,2.473,2.473,0,0,0,1.783-.8Z" transform="translate(0 -192.507)" fill="#c49866"/>
      <path id="Path_2" data-name="Path 2" d="M58.147,228.39h.742l2.205,4.753h-.9l-.574-1.281H57.361l-.568,1.281H55.94Zm-.5,2.818h1.677l-.816-1.843h-.043Z" transform="translate(-47.349 -193.311)" fill="#c49866"/>
      <path id="Path_3" data-name="Path 3" d="M116.86,233.143V228.39h2.62a1.762,1.762,0,0,1,1.382.5,1.382,1.382,0,0,1,.379.954,1.413,1.413,0,0,1-.438,1.026,1.79,1.79,0,0,1-1.318.445h-1.811v1.826Zm.816-4.025v1.471h1.8a1,1,0,0,0,.722-.233.694.694,0,0,0,.218-.5.68.68,0,0,0-.2-.481.951.951,0,0,0-.743-.255Z" transform="translate(-98.913 -193.311)" fill="#c49866"/>
      <path id="Path_4" data-name="Path 4" d="M173.27,233.143V228.39h.816v4.753Z" transform="translate(-146.659 -193.311)" fill="#c49866"/>
      <path id="Path_5" data-name="Path 5" d="M206.22,228.39h4.551v.728h-1.864v4.025h-.816v-4.025H206.22Z" transform="translate(-174.549 -193.311)" fill="#c49866"/>
      <path id="Path_6" data-name="Path 6" d="M258.862,228.39h.743l2.205,4.753h-.9l-.571-1.281h-2.265l-.567,1.281h-.852Zm-.495,2.818h1.682l-.815-1.843h-.043Z" transform="translate(-217.242 -193.311)" fill="#c49866"/>
      <path id="Path_7" data-name="Path 7" d="M318.4,228.39v4.025h2.918v.728H317.58V228.39Z" transform="translate(-268.806 -193.311)" fill="#c49866"/>
      <path id="Path_8" data-name="Path 8" d="M.565,25.906V3.45A2.3,2.3,0,0,0,0,1.49H3.956c-.679.6-.565,1.281-.565,2V25.717h9.345c1.843,0,2.15.038,3.5-.98l-.866,3.128H0A2.3,2.3,0,0,0,.565,25.906Z" transform="translate(0 -1.258)" fill="#c49866"/>
      <path id="Path_9" data-name="Path 9" d="M133.7,3.339a8.255,8.255,0,0,0-8.439-1.017,3.9,3.9,0,0,0-2.45,3.5c-.075,2.3,2.486,3.806,4.408,4.936l3.73,2.15c1.508.9,4.71,2.751,5.163,5.878a6.873,6.873,0,0,1-1.884,5.69c-3.241,2.938-9.829,2.751-14.168,1.657V23.2a11.044,11.044,0,0,0,10.212,1.052,4.7,4.7,0,0,0,2.6-4.108c.037-2.336-1.809-3.729-4.184-5.087l-4.031-2.3c-2.826-1.62-4.56-3.391-4.747-6.143A5.733,5.733,0,0,1,122.283,1.6C125.3-.578,130.346-.17,133.7.589Z" transform="translate(-101.483 0.019)" fill="#c49866"/>
      <path id="Path_10" data-name="Path 10" d="M236.825,25.906V3.45a2.3,2.3,0,0,0-.565-1.96h3.953c-.679.6-.565,1.281-.565,2V25.717h9.344c1.843,0,2.15.038,3.5-.98l-.866,3.128H236.26A2.3,2.3,0,0,0,236.825,25.906Z" transform="translate(-199.975 -1.258)" fill="#c49866"/>
    </g>
  </g>
</svg>