<svg xmlns="http://www.w3.org/2000/svg" viewBox="0 0 596.37 596.37"><defs><linearGradient id="f" x1="106.28" x2="490.09" y1="235.63" y2="235.63" gradientTransform="matrix(1 0 0 -1 0 533.82)" gradientUnits="userSpaceOnUse"><stop offset="0" stop-color="#6f4a28"/><stop offset=".13" stop-color="#af9153"/><stop offset=".53" stop-color="#e9dabc"/><stop offset=".88" stop-color="#a38460"/><stop offset=".9" stop-color="#a0805c"/><stop offset="1" stop-color="#8a552f"/></linearGradient><style>.h{fill:url(#f)}.i{fill:none}</style></defs><g id="b"><g id="c"><g id="d"><g id="e"><path id="g" d="M142.41 445.53c-4.51 4.88-10.68 7.65-17.13 7.68-11.45 0-19-8.71-19-19.59s7.61-19.53 18.73-19.53c5.99-.02 11.78 2.29 16.27 6.49l-4.04 4.24c-3.33-3.2-7.64-5.01-12.13-5.09-7.61 0-12.55 6.32-12.55 13.95s5.05 13.89 12.79 13.89c4.96-.08 9.67-2.33 13.03-6.21l4.02 4.17Zm42.78-30.31h5.42l16.12 36.92h-6.54l-4.2-10.02h-16.54l-4.15 9.93h-6.23l16.13-36.84Zm-3.63 21.86h12.26l-5.96-14.29h-.31l-5.98 14.29Zm55.87 15.01v-36.92h19.15c4.9 0 7.93 1.47 10.1 3.89 1.78 2 2.78 4.64 2.77 7.4.01 3.01-1.15 5.88-3.2 7.96-2.07 2.1-4.99 3.45-9.63 3.45h-13.23v14.16l-5.96.06Zm5.96-31.22v11.41h13.19c1.91.16 3.81-.49 5.27-1.81a5.516 5.516 0 0 0 1.59-3.89c0-1.39-.52-2.73-1.44-3.73-1.46-1.46-3.44-2.18-5.43-1.98h-13.19Zm57.35 31.22v-36.92h5.96v36.92h-5.96Zm36.98-36.92h33.25v5.65h-13.62v31.22h-5.96v-31.16h-13.67v-5.71Zm72.7 0h5.43l16.12 36.92h-6.54l-4.17-9.96h-16.55l-4.14 9.93h-6.23l16.09-36.9Zm-3.61 21.86h12.35l-5.96-14.29h-.31l-6.07 14.29Zm61.85-21.86v31.22h21.32v5.65H462.7v-36.92l5.96.06Zm-358.25-80.85V160.16c0-5.26.83-9.36-4.13-15.2h28.91c-4.96 4.67-4.13 9.93-4.13 15.48v172.41h68.29c13.47 0 15.71.3 25.6-7.6l-6.33 24.26H106.28c4.96-5.85 4.13-9.93 4.13-15.2Zm231.28-165.11c-18.45-15.48-43.5-16.95-61.67-7.88-11.84 5.84-17.35 15.48-17.9 27.17-.55 17.87 18.17 29.51 32.21 38.28l27.26 16.67c11.02 7.02 34.42 21.33 37.73 45.58 1.65 14.29-2.48 33.61-13.77 44.13-23.68 22.79-71.83 21.33-103.53 12.85v-22.8c20.93 16.07 53.93 18.4 74.62 8.13 11.42-6.05 18.73-18.32 19-31.86.27-18.12-13.22-28.92-30.57-39.45l-29.46-17.87c-20.65-12.57-33.32-26.3-34.69-47.64-.9-15.26 5.66-29.94 17.35-38.86 22.02-16.84 58.92-13.7 83.42-7.74v21.28Zm33.87 165.11V160.16c0-5.26.83-9.36-4.13-15.2h28.89c-4.96 4.67-4.13 9.93-4.13 15.48v172.41h68.28c13.47 0 15.71.3 25.61-7.6l-6.33 24.26H371.43c4.96-5.85 4.13-9.93 4.13-15.2Z" style="fill:url(#f)"/></g></g><path d="M0 0h596.37v596.37H0z" style="fill:none"/></g></g></svg>