<?xml version="1.0" encoding="UTF-8"?><svg id="uuid-9fe311e6-3e58-46a2-a1c0-93ea62dca77d" xmlns="http://www.w3.org/2000/svg" viewBox="0 0 393.24 393.24"><g id="uuid-0fb0e734-6d1b-4635-85bf-53ba94746533"><g id="uuid-80468215-410a-49d0-8301-c50a3e82bc43"><g id="uuid-8bfc3780-0d5a-4984-8d68-f8f40fb59d64"><g id="uuid-1e406e42-2fa7-4991-9c5d-430f763b8ba7"><g id="uuid-c539fcd3-1bc8-45ce-a92c-e6ea1af9f203"><path d="M196.66,0C88.21,0,0,88.2,0,196.62s88.21,196.62,196.66,196.62,196.58-88.24,196.58-196.62S305,0,196.66,0ZM388.8,196.54l-.68-1.15c-13.6-22.4-45-37.74-72.4-42.42v-8.22h45.15l-1-2.93c-21.2924-63.0914-76.9726-108.3118-143.09-116.21-5.12-9.1-11.57-16.16-19-20.61l-.84-.51c105.79.12,191.82,86.22,191.86,192.05ZM168.08,324.29c3.6628-4.2856,6.8951-8.9213,9.65-13.84,4.8093,6.4192,10.8632,11.8031,17.8,15.83l1.09.61,1.09-.61c6.9462-3.9969,13.0439-9.3133,17.95-15.65,2.7312,4.8532,5.9297,9.4283,9.55,13.66-3.25,28.06-13.6,49.56-28.54,59.33-15.01-9.77-25.34-31.27-28.59-59.33ZM196.66,9.47c14.94,9.76,25.34,31.26,28.54,59.33-3.6121,4.1821-6.8073,8.7069-9.54,13.51-4.9113-6.3721-11.0273-11.7168-18-15.73l-1-.58-1.09.62c-6.9721,4.042-13.0623,9.4419-17.91,15.88-2.7319-4.8701-5.9374-9.459-9.57-13.7,3.24-28.07,13.57-49.57,28.57-59.33ZM382.06,194.32h-20.86l10.8-10.84c3.7337,3.2408,7.1065,6.8752,10.06,10.84ZM354.94,194.32h-20.45l21.89-22c4.2433,2.501,8.3096,5.2909,12.17,8.35l-13.61,13.65ZM328.24,194.32h-21.05l30.72-30.94c4.9624,1.889,9.7961,4.1004,14.47,6.62l-24.14,24.32ZM300.93,194.32h-19.93l36.43-36.7c5.3665.9973,10.6562,2.3707,15.83,4.11l-32.33,32.59ZM299,237.19c-2.759-.0064-5.5159-.1533-8.26-.44l-37.7-38h21.7l37.28,37.56c-4.3161.5777-8.6654.8717-13.02.88ZM217.74,305.36c-5.83-11.33-6.63-14.5-6.65-14.6l-.06-.22c-5.14-15.91-6.22-35.43-3-53.93.88.11,1.78.24,2.71.38,11.57,2.24,40.27,10.63,56.71,40.15,12.84,23.05,14.36,48.33,4.08,66.35-21.37-.49-41.87-15.04-53.75-38.13h-.04ZM121.62,343.49c-10.29-18-8.77-43.3,4.07-66.35,16.45-29.52,45.14-37.91,56.63-40.13.96-.1467,1.89-.2767,2.79-.39,3.2,18.49,2.13,38-3.06,54.11,0,.13-.84,3.3-6.66,14.63-11.79,23.09-32.3,37.64-53.73,38.13h-.04ZM175.47,87.73c5.82,11.32,6.62,14.5,6.65,14.6l.06.22c5.14,15.9,6.21,35.43,3,53.92-.87-.11-1.78-.23-2.71-.38-11.57-2.24-40.26-10.63-56.71-40.15-12.84-23-14.36-48.32-4.07-66.34,21.4.53,41.91,15.03,53.78,38.13ZM271.55,49.6c10.28,18,8.76,43.3-4.08,66.34-2.7214,4.8862-5.96,9.4658-9.66,13.66h-.06v.07c-16.35,18.54-37.45,24.58-46.91,26.41-1,.15-1.89.28-2.79.39-3.2-18.5-2.12-38,3.07-54.11,0-.13.83-3.31,6.66-14.63,11.88-23.1,32.38-37.6,53.77-38.13ZM312.06,156.77l-37.29,37.55h-21.7l37.71-38c2.7431-.3,5.5005-.4502,8.26-.45,4.3552.0097,8.7049.3103,13.02.9h0ZM257.75,256.89c-16.67-16.76-36.78-22.44-46.23-24.27-.9-.14-1.78-.26-2.63-.37,2.2652-11.0866,6.293-21.7384,11.93-31.55,9.3311,13.5105,22.0728,24.3097,36.93,31.3v24.89ZM135.49,136.19c16.68,16.76,36.78,22.45,46.23,24.27.9.14,1.78.27,2.63.38-2.2545,11.0865-6.2829,21.7367-11.93,31.54-9.3273-13.4991-22.0714-24.2797-36.93-31.24v-24.95ZM168.31,194.32h-20.09l-36.22-36.47c18.8,3.98,40.91,14.56,56.31,36.47ZM168.31,198.76c-15.41,21.92-37.51,32.5-56.3,36.48l36.21-36.48h20.09ZM135.49,232c14.8572-6.9671,27.6005-17.7505,36.93-31.25,5.6413,9.8096,9.6693,20.4621,11.93,31.55-.87.11-1.78.24-2.71.38-9.39,1.82-29.48,7.5-46.15,24.26v-24.94ZM175.13,196.59c6.5696-10.8585,11.1924-22.781,13.66-35.23,4.6.41,7.65.38,7.81.38s3.24,0,7.86-.38c2.4697,12.4469,7.0887,24.3684,13.65,35.23-6.5613,10.8616-11.1803,22.7831-13.65,35.23-4.61-.4-7.66-.37-7.81-.37s-3.24,0-7.86.37c-2.47-12.4641-7.0924-24.4025-13.66-35.28v.05ZM224.93,194.37c16-22.79,39.29-33.32,58.54-36.92l-36.65,36.92h-21.89ZM257.86,161.14c-14.8873,6.9683-27.6562,17.7666-37,31.29-5.6413-9.8096-9.6693-20.4621-11.93-31.55.88-.11,1.78-.24,2.71-.38,9.39-1.82,29.48-7.5,46.15-24.26v24.9h.07ZM224.93,198.81h21.89l36.65,36.92c-19.25-3.65-42.51-14.18-58.54-37v.08ZM284.57,152.81c-7.6818,1.2884-15.1907,3.4525-22.38,6.45v-27.8c3.4807-4.109,6.5488-8.5504,9.16-13.26,1.7484-3.1249,3.3176-6.3468,4.7-9.65h8.52v44.26ZM206.82,101.36c-5.31,16.46-6.45,36.6-3.2,55.67-4.17.34-7,.32-7,.32,0,0-2.83,0-7-.32,3.25-19.07,2.11-39.2-3.19-55.67-.2-.78-1.3-4.33-6.46-14.47,4.4411-6.3408,10.1181-11.7185,16.69-15.81,6.5409,4.0182,12.2204,9.2932,16.71,15.52-5.24,10.28-6.35,13.88-6.55,14.66v.1ZM121.89,118.1c2.6182,4.7077,5.6894,9.1487,9.17,13.26v27.8c-7.1961-2.9977-14.7117-5.1618-22.4-6.45v-44.26h8.52c1.3899,3.3015,2.9624,6.5231,4.71,9.65ZM104.49,156.58l37.51,37.74h-21.7l-37.51-37.75c3.7875-.4413,7.5969-.6683,11.41-.68,3.4412.0097,6.8783.2402,10.29.69h0ZM142,198.76l-37.48,37.75c-3.4124.4415-6.8492.6686-10.29.68-3.8133-.0067-7.6229-.2338-11.41-.68l37.48-37.75h21.7ZM108.69,240.37c7.6566-1.2947,15.1413-3.4553,22.31-6.44v27.79c-3.4583,4.1221-6.5093,8.5695-9.11,13.28-1.693,3.0308-3.2187,6.1522-4.57,9.35h-8.66l.03-43.98ZM186.44,291.83c5.3-16.47,6.44-36.6,3.19-55.67,4.17-.34,7-.32,7-.32,0,0,2.82,0,7,.32-3.25,19.06-2.11,39.2,3.2,55.67.2.78,1.3,4.34,6.48,14.51-4.4707,6.1869-10.1186,11.4304-16.62,15.43-6.5177-4.0392-12.1535-9.3518-16.57-15.62,5-10,6.14-13.55,6.34-14.32h-.02ZM271.35,275c-2.6111-4.7128-5.6792-9.1575-9.16-13.27v-27.8c7.1912,2.9898,14.6996,5.1504,22.38,6.44v44h-8.64c-1.3608-3.2017-2.8896-6.3294-4.58-9.37ZM299,151.46c-3.3429.01-6.6823.2204-10,.63v-48.09h-11.22c2.6011-7.1727,4.1995-14.6701,4.75-22.28h28.75v70.56c-4.0577-.5412-8.1463-.8184-12.24-.83l-.04.01ZM354.62,140.31h-38.9v-61.72c17.3536,17.4652,30.6483,38.5375,38.94,61.72h-.04ZM282.62,77.31c.2342-9.8178-1.9572-19.5417-6.38-28.31,14.0003,7.5821,26.8576,17.1064,38.19,28.29l-31.81.02ZM229.09,64.6c-1.5102-11.8397-4.8288-23.3773-9.84-34.21,17.2615,2.3353,34.0493,7.3666,49.75,14.91-14.58,1.04-28.57,7.95-39.91,19.3ZM164.15,64.6c-11.34-11.35-25.33-18.27-39.87-19.3,15.6949-7.5311,32.4709-12.5618,49.72-14.91-5.0146,10.8321-8.3366,22.3698-9.85,34.21ZM110.54,77.29h-31.73c11.3348-11.1807,24.1918-20.7048,38.19-28.29-4.4449,8.756-6.6637,18.4725-6.46,28.29ZM77.54,140.29h-39c8.3057-23.185,21.6141-44.2571,38.98-61.72l.02,61.72ZM82,81.71h28.75c.5334,7.6118,2.1185,15.1131,4.71,22.29h-11.22v48.07c-3.3177-.4097-6.6571-.62-10-.63-4.0937.0199-8.182.3005-12.24.84v-70.57ZM77.34,157.32l36.71,37h-19.92l-32.81-33c5.2302-1.7163,10.5774-3.0531,16-4h.02ZM56.68,162.89l31.21,31.43h-21.08l-24.81-24.94c4.7394-2.4819,9.6366-4.6499,14.66-6.49h.02ZM38,171.6l22.55,22.72h-20.45l-14.44-14.5c3.9225-3.0161,8.0454-5.7625,12.34-8.22ZM22.25,182.6l11.59,11.68H11.18c3.2319-4.2912,6.9463-8.1969,11.07-11.64v-.04ZM33.84,198.72l-11.58,11.68c-4.1221-3.4598-7.8361-7.3784-11.07-11.68h22.65ZM40.09,198.72h20.47l-22.56,22.72c-4.2817-2.4578-8.3912-5.2042-12.3-8.22l14.39-14.5ZM66.81,198.72h21l-31.15,31.48c-5.0075-1.8433-9.8881-4.0147-14.61-6.5l24.76-24.98ZM94.11,198.72h19.89l-36.71,37c-5.421-.9232-10.7682-2.2366-16-3.93l32.82-33.07ZM94.2,241.59c3.3426-.0116,6.6816-.2186,10-.62v47.77h11.34c-2.6268,7.1624-4.2522,14.6531-4.83,22.26h-28.71v-70.21c4.058.5395,8.1463.8201,12.24.84l-.04-.04ZM38.2,251.7h39.37v62.94c-17.6685-17.761-31.1347-39.2537-39.41-62.9l.04-.04ZM110.59,315.45c-.2585,10.0172,2.0077,19.9385,6.59,28.85-14.2585-7.7023-27.3328-17.4188-38.82-28.85h32.23ZM164.19,328.45c1.84,13.05,5.22,24.67,9.92,34.36-17.4052-2.3289-34.3336-7.3913-50.16-15,14.7-1,28.77-7.88,40.19-19.31l.05-.05ZM229.13,328.45c11.43,11.43,25.54,18.36,40.2,19.31-15.8082,7.6201-32.7193,12.6991-50.11,15.05,5.0167-10.8706,8.3418-22.4443,9.86-34.32l.05-.04ZM282.74,315.45h32.26c-11.4826,11.4365-24.5578,21.1536-38.82,28.85,4.5505-8.9059,6.7891-18.8128,6.51-28.81l.05-.04ZM315.74,251.69h39.37c-8.2475,23.6797-21.701,45.2081-39.37,63v-63ZM311.31,311h-28.8c-.5885-7.5975-2.2205-15.0778-4.85-22.23h11.34v-47.77c3.3184.4014,6.6574.6084,10,.62,4.0912-.0098,8.1782-.2602,12.24-.75l.07,70.13ZM317.5,235.42l-36.44-36.71h19.94l32.39,32.63c-5.1896,1.746-10.4962,3.1228-15.88,4.12l-.01-.04ZM338,229.71l-30.75-31h21l24.2,24.38c-4.6937,2.5329-9.5473,4.7576-14.53,6.66l.08-.04ZM356.51,220.84l-22-22.12h20.46l13.72,13.83c-3.8786,3.0473-7.9578,5.8302-12.21,8.33l.03-.04ZM372.11,209.65l-10.85-10.93h21c-2.9795,4.0291-6.3934,7.7179-10.18,11l.03-.07ZM196.32,4.44l-.84.51c-7.45,4.5-13.86,11.56-19,20.66-66.1307,7.8826-121.8271,53.1068-143.12,116.21l-1,2.93h45.15v8.25c-27.41,4.68-58.78,20-72.35,42.34l-.72,1.09C4.57,90.63,90.56,4.61,196.32,4.44ZM4.44,196.62h0l.68,1.12c13.61,22.39,45,37.74,72.4,42.42v7.18h-45.52l1,2.91c20.9466,63.7168,76.9425,109.5043,143.55,117.38,5.13,9,11.52,16,18.93,20.51l1.09.66c-105.91-.03-192.13-86.23-192.13-192.18ZM196.66,388.8l1.09-.66c7.4-4.47,13.79-11.48,18.92-20.51,66.6326-7.8735,122.6501-53.6784,143.6-117.42l1-2.91h-45.55v-7c32.37-5.2,61.54-24.43,72.48-42.44l.6-1c-.14,105.82-86.25,191.9-192.14,191.94Z" style="fill:#fff; stroke-width:0px;"/></g></g></g></g></g></svg>