<svg xmlns="http://www.w3.org/2000/svg" xmlns:xlink="http://www.w3.org/1999/xlink" width="160" height="229" viewBox="0 0 160 229"><defs><clipPath id="a"><rect width="160" height="229" transform="translate(-13132 -6384)" fill="#fff" stroke="#707070" stroke-width="1"/></clipPath><filter id="b" x="-2" y="-7" width="163.82" height="240.3" filterUnits="userSpaceOnUse"><feOffset dx="2" dy="2" input="SourceAlpha"/><feGaussianBlur stdDeviation="3" result="c"/><feFlood flood-opacity="0.369"/><feComposite operator="in" in2="c"/><feComposite in="SourceGraphic"/></filter><clipPath id="d"><rect width="116.69" height="150.91" transform="translate(15 22.45)" fill="none"/></clipPath></defs><g transform="translate(13132 6384)" clip-path="url(#a)"><g transform="translate(-13127 -6384)"><g transform="matrix(1, 0, 0, 1, -5, 0)" filter="url(#b)"><path d="M7,7H152.82V229.3L7,179.13Z" transform="translate(-2 -7)" fill="#fff"/></g><g clip-path="url(#d)"><path d="M56.94,89.77v1.15h3.31c0,2.08-2,3.45-4,3.45a4.67,4.67,0,0,1-4.46-4.6,4.53,4.53,0,0,1,8.34-2.52l.86-.86a5.74,5.74,0,1,0-4.75,9.06,5.16,5.16,0,0,0,5.25-5.75h-4.6Z" transform="translate(-7 -7)" fill="#0060a8"/></g><g clip-path="url(#d)"><path d="M67.08,90.21c1.94-.36,2.73-1.51,2.73-2.88,0-2.52-2.08-3-4.6-3H62.77V95.38H64V85.46h1.22c1.51,0,3.38.14,3.38,2,0,1.65-1.65,1.94-3,1.94h-.1v1l4.53,5h1.65l-4.75-5.18c.07-.07.07-.07.14-.07" transform="translate(-7 -7)" fill="#0060a8"/></g><g clip-path="url(#d)"><path d="M72.54,95.38h1.37l3.73-8.56,3.6,8.56h1.37l-5-11Z" transform="translate(-7 -7)" fill="#0060a8"/></g><g clip-path="url(#d)"><path d="M84.84,92.86l-3.67-8.48H79.81l5,11,5.1-11H88.5Z" transform="translate(-7 -7)" fill="#0060a8"/></g><g clip-path="url(#d)"><rect width="1.22" height="11.07" transform="translate(83.95 77.31)" fill="#0060a8"/></g><g clip-path="url(#d)"><path d="M93.68,85.46h2.66v9.92h1.22V85.46h2.73V84.31H93.68Z" transform="translate(-7 -7)" fill="#0060a8"/></g><g clip-path="url(#d)"><path d="M108.64,84.31l-2.8,4.89L103,84.31h-1.45l3.67,6.33v4.75h1.22V90.64l3.6-6.33Z" transform="translate(-7 -7)" fill="#0060a8"/></g><g clip-path="url(#d)"><path d="M80.38,125.29c-19.41,0-35.09-16.1-35.09-35.44a35.089,35.089,0,1,1,70.173-.75c0,.247,0,.5,0,.75,0,19.34-15.67,35.44-35.09,35.44m0-83.26A48.22,48.22,0,0,0,32.21,90c0,26.6,21.86,47.74,48.17,47.74S128.55,116.66,128.55,90A48.177,48.177,0,0,0,80.38,42" transform="translate(-7 -7)" fill="#b2b2b2"/></g><g clip-path="url(#d)"><path d="M87.35,160.38c-7.19-2.66-10.57-3.74-17.4-3.74A19.33,19.33,0,0,0,54.78,164c3.38-1.51,5.54-2.09,8.2-2.09a30.72,30.72,0,0,1,11.07,2.3,38.21,38.21,0,0,0,15,3.45,37,37,0,0,0,18.12-5.1c-6.18,1.65-12.65.43-19.77-2.23" transform="translate(-7 -7)" fill="#b2b2b2"/></g></g></g></svg>